<svg width="263" height="132" viewBox="0 0 263 132" fill="none" xmlns="http://www.w3.org/2000/svg">
<path d="M0 128H263V132H0V128Z" fill="#373F48"/>
<path d="M0 0H4V132H0V0Z" fill="#373F48"/>
<path d="M2 0H92V4H2V0Z" fill="#373F48"/>
<path d="M34.2955 59V35.7273H38.5114V55.4659H48.7614V59H34.2955Z" fill="#373F48"/>
<path d="M75.3097 47.3636C75.3097 49.8712 74.84 52.0189 73.9006 53.8068C72.9688 55.5871 71.696 56.9508 70.0824 57.8977C68.4763 58.8447 66.6544 59.3182 64.6165 59.3182C62.5786 59.3182 60.7528 58.8447 59.1392 57.8977C57.5331 56.9432 56.2604 55.5758 55.321 53.7955C54.3892 52.0076 53.9233 49.8636 53.9233 47.3636C53.9233 44.8561 54.3892 42.7121 55.321 40.9318C56.2604 39.1439 57.5331 37.7765 59.1392 36.8295C60.7528 35.8826 62.5786 35.4091 64.6165 35.4091C66.6544 35.4091 68.4763 35.8826 70.0824 36.8295C71.696 37.7765 72.9688 39.1439 73.9006 40.9318C74.84 42.7121 75.3097 44.8561 75.3097 47.3636ZM71.071 47.3636C71.071 45.5985 70.7945 44.1098 70.2415 42.8977C69.696 41.678 68.9384 40.7576 67.9688 40.1364C66.9991 39.5076 65.8816 39.1932 64.6165 39.1932C63.3513 39.1932 62.2339 39.5076 61.2642 40.1364C60.2945 40.7576 59.5331 41.678 58.9801 42.8977C58.4347 44.1098 58.1619 45.5985 58.1619 47.3636C58.1619 49.1288 58.4347 50.6212 58.9801 51.8409C59.5331 53.053 60.2945 53.9735 61.2642 54.6023C62.2339 55.2235 63.3513 55.5341 64.6165 55.5341C65.8816 55.5341 66.9991 55.2235 67.9688 54.6023C68.9384 53.9735 69.696 53.053 70.2415 51.8409C70.7945 50.6212 71.071 49.1288 71.071 47.3636Z" fill="#373F48"/>
<path d="M82.2955 59V35.7273H97.2045V39.2614H86.5114V45.5795H96.1818V49.1136H86.5114V59H82.2955Z" fill="#373F48"/>
<path d="M103.023 39.2614V35.7273H121.591V39.2614H114.398V59H110.216V39.2614H103.023Z" fill="#373F48"/>
<path d="M42.1818 98H34.2955V74.7273H42.3409C44.6515 74.7273 46.6364 75.1932 48.2955 76.125C49.9621 77.0492 51.2424 78.3788 52.1364 80.1136C53.0303 81.8485 53.4773 83.9242 53.4773 86.3409C53.4773 88.7651 53.0265 90.8485 52.125 92.5909C51.2311 94.3333 49.9394 95.6705 48.25 96.6023C46.5682 97.5341 44.5455 98 42.1818 98ZM38.5114 94.3523H41.9773C43.5985 94.3523 44.9508 94.0568 46.0341 93.4659C47.1174 92.8674 47.9318 91.9773 48.4773 90.7955C49.0227 89.6061 49.2955 88.1212 49.2955 86.3409C49.2955 84.5606 49.0227 83.0833 48.4773 81.9091C47.9318 80.7273 47.125 79.8447 46.0568 79.2614C44.9962 78.6705 43.678 78.375 42.1023 78.375H38.5114V94.3523Z" fill="#373F48"/>
<path d="M60.483 98V74.7273H75.6193V78.2614H64.6989V84.5795H74.8352V88.1136H64.6989V94.4659H75.7102V98H60.483Z" fill="#373F48"/>
<path d="M95.5682 81.125C95.4621 80.1326 95.0152 79.3598 94.2273 78.8068C93.447 78.2538 92.4318 77.9773 91.1818 77.9773C90.303 77.9773 89.5492 78.1098 88.9205 78.375C88.2917 78.6402 87.8106 79 87.4773 79.4545C87.1439 79.9091 86.9735 80.428 86.9659 81.0114C86.9659 81.4962 87.0758 81.9167 87.2955 82.2727C87.5227 82.6288 87.8295 82.9318 88.2159 83.1818C88.6023 83.4242 89.0303 83.6288 89.5 83.7955C89.9697 83.9621 90.4432 84.1023 90.9205 84.2159L93.1023 84.7614C93.9811 84.9659 94.8258 85.2424 95.6364 85.5909C96.4545 85.9394 97.1856 86.3788 97.8295 86.9091C98.4811 87.4394 98.9962 88.0795 99.375 88.8295C99.7538 89.5795 99.9432 90.4583 99.9432 91.4659C99.9432 92.8295 99.5947 94.0303 98.8977 95.0682C98.2008 96.0985 97.1932 96.9053 95.875 97.4886C94.5644 98.0644 92.9773 98.3523 91.1136 98.3523C89.303 98.3523 87.7311 98.072 86.3977 97.5114C85.072 96.9508 84.0341 96.1326 83.2841 95.0568C82.5417 93.9811 82.1402 92.6705 82.0795 91.125H86.2273C86.2879 91.9356 86.5379 92.6098 86.9773 93.1477C87.4167 93.6856 87.9886 94.0871 88.6932 94.3523C89.4053 94.6174 90.2008 94.75 91.0795 94.75C91.9962 94.75 92.7992 94.6136 93.4886 94.3409C94.1856 94.0606 94.7311 93.6742 95.125 93.1818C95.5189 92.6818 95.7197 92.0985 95.7273 91.4318C95.7197 90.8258 95.5417 90.3258 95.1932 89.9318C94.8447 89.5303 94.3561 89.197 93.7273 88.9318C93.1061 88.6591 92.3788 88.4167 91.5455 88.2045L88.8977 87.5227C86.9811 87.0303 85.4659 86.2841 84.3523 85.2841C83.2462 84.2765 82.6932 82.9394 82.6932 81.2727C82.6932 79.9015 83.0644 78.7008 83.8068 77.6705C84.5568 76.6402 85.5758 75.8409 86.8636 75.2727C88.1515 74.697 89.6098 74.4091 91.2386 74.4091C92.8902 74.4091 94.3371 74.697 95.5795 75.2727C96.8295 75.8409 97.8106 76.6326 98.5227 77.6477C99.2348 78.6553 99.6023 79.8144 99.625 81.125H95.5682Z" fill="#373F48"/>
<path d="M110.918 74.7273V98H106.702V74.7273H110.918Z" fill="#373F48"/>
<path d="M134.074 82.1591C133.884 81.5455 133.623 80.9962 133.29 80.5114C132.964 80.0189 132.57 79.5985 132.108 79.25C131.653 78.9015 131.131 78.6401 130.54 78.4659C129.949 78.2841 129.305 78.1932 128.608 78.1932C127.358 78.1932 126.244 78.5076 125.267 79.1364C124.29 79.7651 123.521 80.6894 122.96 81.9091C122.407 83.1212 122.131 84.5985 122.131 86.3409C122.131 88.0985 122.407 89.5871 122.96 90.8068C123.513 92.0265 124.282 92.9545 125.267 93.5909C126.252 94.2197 127.396 94.5341 128.699 94.5341C129.881 94.5341 130.903 94.3068 131.767 93.8523C132.638 93.3977 133.309 92.7538 133.778 91.9205C134.248 91.0795 134.483 90.0947 134.483 88.9659L135.438 89.1136H129.119V85.8182H138.562V88.6136C138.562 90.6061 138.138 92.3295 137.29 93.7841C136.441 95.2386 135.275 96.3598 133.79 97.1477C132.305 97.928 130.6 98.3182 128.676 98.3182C126.532 98.3182 124.65 97.8371 123.028 96.875C121.415 95.9053 120.153 94.5303 119.244 92.75C118.343 90.9621 117.892 88.8409 117.892 86.3864C117.892 84.5076 118.157 82.8295 118.688 81.3523C119.225 79.875 119.975 78.6212 120.938 77.5909C121.9 76.553 123.028 75.7652 124.324 75.2273C125.619 74.6818 127.028 74.4091 128.551 74.4091C129.839 74.4091 131.04 74.5985 132.153 74.9773C133.267 75.3485 134.256 75.8788 135.119 76.5682C135.991 77.2576 136.706 78.0758 137.267 79.0227C137.828 79.9697 138.195 81.0151 138.369 82.1591H134.074Z" fill="#373F48"/>
<path d="M164.764 74.7273V98H161.014L150.048 82.1477H149.855V98H145.639V74.7273H149.412L160.366 90.5909H160.571V74.7273H164.764Z" fill="#373F48"/>
</svg>
